<svg viewBox="0 23 304 97" fill="none" xmlns="http://www.w3.org/2000/svg"><path d="M106.992 39.152c0 2.39-.576 4.63-1.728 6.72-1.109 2.09-2.88 3.776-5.312 5.056-2.39 1.28-5.419 1.92-9.088 1.92h-7.488V70h-8.96V25.328h16.448c3.456 0 6.4.597 8.832 1.792 2.432 1.195 4.245 2.837 5.44 4.928 1.237 2.09 1.856 4.459 1.856 7.104ZM90.48 45.616c2.475 0 4.31-.555 5.504-1.664 1.195-1.152 1.792-2.752 1.792-4.8 0-4.352-2.432-6.528-7.296-6.528h-7.104v12.992h7.104Zm20.569 6.528c0-3.584.704-6.763 2.112-9.536 1.451-2.773 3.393-4.907 5.825-6.4 2.474-1.493 5.226-2.24 8.256-2.24 2.645 0 4.949.533 6.912 1.6 2.005 1.067 3.605 2.41 4.8 4.032v-5.056h9.024V70h-9.024v-5.184c-1.152 1.664-2.752 3.05-4.8 4.16-2.006 1.067-4.331 1.6-6.976 1.6-2.987 0-5.718-.768-8.192-2.304-2.432-1.536-4.374-3.69-5.825-6.464-1.408-2.816-2.112-6.037-2.112-9.664Zm27.905.128c0-2.176-.427-4.032-1.28-5.568-.854-1.579-2.006-2.773-3.456-3.584a9.06 9.06 0 0 0-4.672-1.28c-1.664 0-3.2.405-4.608 1.216-1.408.81-2.56 2.005-3.456 3.584-.854 1.536-1.28 3.37-1.28 5.504 0 2.133.426 4.01 1.28 5.632.896 1.579 2.048 2.795 3.456 3.648 1.45.853 2.986 1.28 4.608 1.28a9.425 9.425 0 0 0 4.672-1.216c1.45-.853 2.602-2.048 3.456-3.584.853-1.579 1.28-3.456 1.28-5.632Zm26.735-12.224c1.152-1.877 2.645-3.35 4.48-4.416 1.877-1.067 4.01-1.6 6.4-1.6v9.408h-2.368c-2.816 0-4.95.661-6.4 1.984-1.408 1.323-2.112 3.627-2.112 6.912V70h-8.96V34.544h8.96v5.504Zm14.61 12.096c0-3.584.704-6.763 2.112-9.536 1.451-2.773 3.393-4.907 5.825-6.4 2.474-1.493 5.226-2.24 8.256-2.24 2.645 0 4.949.533 6.912 1.6 2.005 1.067 3.605 2.41 4.8 4.032v-5.056h9.024V70h-9.024v-5.184c-1.152 1.664-2.752 3.05-4.8 4.16-2.006 1.067-4.331 1.6-6.976 1.6-2.987 0-5.718-.768-8.192-2.304-2.432-1.536-4.374-3.69-5.825-6.464-1.408-2.816-2.112-6.037-2.112-9.664Zm27.905.128c0-2.176-.427-4.032-1.28-5.568-.854-1.579-2.006-2.773-3.456-3.584a9.06 9.06 0 0 0-4.672-1.28c-1.664 0-3.2.405-4.608 1.216-1.408.81-2.56 2.005-3.456 3.584-.854 1.536-1.28 3.37-1.28 5.504 0 2.133.426 4.01 1.28 5.632.896 1.579 2.048 2.795 3.456 3.648 1.45.853 2.986 1.28 4.608 1.28a9.425 9.425 0 0 0 4.672-1.216c1.45-.853 2.602-2.048 3.456-3.584.853-1.579 1.28-3.456 1.28-5.632Zm26.735-12.544c1.152-1.707 2.73-3.093 4.736-4.16 2.048-1.067 4.373-1.6 6.976-1.6 3.029 0 5.76.747 8.192 2.24 2.474 1.493 4.416 3.627 5.824 6.4 1.45 2.73 2.176 5.91 2.176 9.536 0 3.627-.726 6.848-2.176 9.664-1.408 2.773-3.35 4.928-5.824 6.464-2.432 1.536-5.163 2.304-8.192 2.304-2.646 0-4.971-.512-6.976-1.536-1.963-1.067-3.542-2.432-4.736-4.096V70h-8.96V22.64h8.96v17.088Zm18.752 12.416c0-2.133-.448-3.968-1.344-5.504-.854-1.579-2.006-2.773-3.456-3.584-1.408-.81-2.944-1.216-4.608-1.216-1.622 0-3.158.427-4.608 1.28-1.408.81-2.56 2.005-3.456 3.584-.854 1.579-1.28 3.435-1.28 5.568 0 2.133.426 3.99 1.28 5.568.896 1.579 2.048 2.795 3.456 3.648a9.301 9.301 0 0 0 4.608 1.216c1.664 0 3.2-.427 4.608-1.28 1.45-.853 2.602-2.07 3.456-3.648.896-1.579 1.344-3.456 1.344-5.632Zm31.407 18.432c-3.414 0-6.486-.747-9.216-2.24-2.731-1.536-4.886-3.69-6.464-6.464-1.536-2.773-2.304-5.973-2.304-9.6s.789-6.827 2.368-9.6c1.621-2.773 3.818-4.907 6.592-6.4 2.773-1.536 5.866-2.304 9.28-2.304 3.413 0 6.506.768 9.28 2.304 2.773 1.493 4.949 3.627 6.528 6.4 1.621 2.773 2.432 5.973 2.432 9.6s-.832 6.827-2.497 9.6c-1.621 2.773-3.839 4.928-6.655 6.464-2.774 1.493-5.888 2.24-9.344 2.24Zm0-7.808a9.342 9.342 0 0 0 4.544-1.152c1.45-.81 2.602-2.005 3.456-3.584.853-1.579 1.28-3.499 1.28-5.76 0-3.37-.896-5.952-2.688-7.744-1.75-1.835-3.904-2.752-6.464-2.752-2.56 0-4.715.917-6.464 2.752-1.707 1.792-2.56 4.373-2.56 7.744 0 3.37.832 5.973 2.496 7.808 1.706 1.792 3.84 2.688 6.4 2.688ZM83.376 111.896h14.72V119h-23.68V74.328h8.96v37.568Zm18.111-10.752c0-3.584.704-6.763 2.112-9.536 1.451-2.773 3.392-4.907 5.824-6.4 2.475-1.493 5.227-2.24 8.256-2.24 2.645 0 4.949.533 6.912 1.6 2.005 1.067 3.605 2.41 4.8 4.032v-5.056h9.024V119h-9.024v-5.184c-1.152 1.664-2.752 3.051-4.8 4.16-2.005 1.067-4.331 1.6-6.976 1.6-2.987 0-5.717-.768-8.192-2.304-2.432-1.536-4.373-3.691-5.824-6.464-1.408-2.816-2.112-6.037-2.112-9.664Zm27.904.128c0-2.176-.427-4.032-1.28-5.568-.853-1.579-2.005-2.773-3.456-3.584a9.06 9.06 0 0 0-4.672-1.28c-1.664 0-3.2.405-4.608 1.216-1.408.81-2.56 2.005-3.456 3.584-.853 1.536-1.28 3.37-1.28 5.504 0 2.133.427 4.011 1.28 5.632.896 1.579 2.048 2.795 3.456 3.648 1.451.853 2.987 1.28 4.608 1.28a9.422 9.422 0 0 0 4.672-1.216c1.451-.853 2.603-2.048 3.456-3.584.853-1.579 1.28-3.456 1.28-5.632Zm26.735-12.544c1.152-1.707 2.731-3.093 4.736-4.16 2.048-1.067 4.373-1.6 6.976-1.6 3.029 0 5.76.747 8.192 2.24 2.475 1.493 4.416 3.627 5.824 6.4 1.451 2.73 2.176 5.91 2.176 9.536 0 3.627-.725 6.848-2.176 9.664-1.408 2.773-3.349 4.928-5.824 6.464-2.432 1.536-5.163 2.304-8.192 2.304-2.645 0-4.971-.512-6.976-1.536-1.963-1.067-3.541-2.432-4.736-4.096V119h-8.96V71.64h8.96v17.088Zm18.752 12.416c0-2.133-.448-3.968-1.344-5.504-.853-1.579-2.005-2.773-3.456-3.584-1.408-.81-2.944-1.216-4.608-1.216-1.621 0-3.157.427-4.608 1.28-1.408.81-2.56 2.005-3.456 3.584-.853 1.579-1.28 3.435-1.28 5.568 0 2.133.427 3.989 1.28 5.568.896 1.579 2.048 2.795 3.456 3.648a9.303 9.303 0 0 0 4.608 1.216 8.73 8.73 0 0 0 4.608-1.28c1.451-.853 2.603-2.069 3.456-3.648.896-1.579 1.344-3.456 1.344-5.632Z" fill="#19BECF"/><path d="M56.88 31.79v.336c-1.954.659-3.649 1.925-5.363 3.016-5.4 3.437-9.87 7.967-13.722 12.966-1.04 1.351-1.995 2.876-2.795 4.374-.489.916-.799 2.144-1.651 2.807-.961.746-2.81.377-3.97.39-2.3.027-4.895.391-7.092 1.046C11.214 60.023 2.71 68.121.51 79.399c-2.772 14.206 6.084 27.142 18.663 33.649 3.134 1.621 6.552 2.913 10.032 3.606.917.183 2.528.938 3.42.424.808-.466 1.4-3.387.627-4.034-.855-.717-2.808-.774-3.874-1.162-2.847-1.035-5.596-2.317-8.13-3.969-12.435-8.11-18.514-26.555-6.396-37.752 3.038-2.807 7.19-5.153 11.413-5.594.91-.095 3.124-.76 3.85-.039.84.835.084 3.09-.016 4.104-.284 2.91-.062 6.416.645 9.253C31.805 82.141 33.292 86.1 36 89.661c5.863 7.711 18.41 13.297 27.452 7.182a14.342 14.342 0 0 0 3.834-3.817c7.778-11.269-2.674-25.238-12.31-31.431a37.199 37.199 0 0 0-9.34-4.29c-.708-.21-2.966-.535-2.961-1.468.007-1.376 1.428-3.192 2.083-4.364 2.6-4.657 6.652-8.783 10.738-12.232 1.242-1.05 2.611-1.994 3.978-2.881.333-.216 1.004-.84 1.442-.742.767.17-.297 2.761-.407 3.237-.628 2.719-1.608 5.369-2.287 8.076-.184.733-1.148 2.245-.25 2.83.456.296 1.154.192 1.675.272 1.151.176 4.099 1.438 5.085.497.849-.81 1.021-3.964 1.168-5.114.504-3.932 1.6-7.872 2.329-11.776.367-1.97.879-3.919 1.26-5.888.115-.59.418-1.593-.088-2.085-.69-.672-2.777-.224-3.7-.341-4.12-.527-8.473 0-12.627-.1-2.937-.07-5.872-.165-8.82-.165-.788 0-2.608-.328-3.01.543-.34.735.065 1.868.069 2.653.004.966-.331 2.945.35 3.744.633.743 3.433.31 4.32.197 3.332-.426 7.587-1.006 10.896-.408ZM39.954 65.37c.801-.336 1.826.151 2.568.417 1.98.709 3.861 1.424 5.708 2.438 6.063 3.33 13.16 9.88 13.85 17.062.358 3.72-.018 7.327-3.99 8.978-3.23 1.342-7.506.067-10.206-1.794-5.313-3.661-8.55-10.889-8.99-17.11-.179-2.538-.432-5.225.15-7.738.148-.642.204-1.959.91-2.254Z" fill="#F6B951"/></svg>