<svg viewBox="0 24 71 48" fill="none" xmlns="http://www.w3.org/2000/svg">
    <path d="M29.2523 27.4919V27.6649C28.2477 28.0036 27.3762 28.6551 26.4947 29.216C23.7173 30.9836 21.4181 33.3132 19.4377 35.8842C18.9025 36.579 18.4113 37.3633 17.9999 38.1337C17.7485 38.6046 17.5893 39.2363 17.1508 39.577C16.6566 39.9611 15.7056 39.771 15.1088 39.7779C13.926 39.7916 12.5918 39.9791 11.4617 40.3157C5.76742 42.0119 1.39368 46.1764 0.262102 51.9767C-1.16312 59.2823 3.39144 65.9356 9.86056 69.2819C11.4722 70.1156 13.2299 70.7798 15.0198 71.1364C15.4913 71.2303 16.32 71.619 16.7786 71.3543C17.1941 71.1145 17.4985 69.6128 17.101 69.2795C16.6614 68.9109 15.6567 68.8815 15.1088 68.6823C13.6447 68.1498 12.2306 67.4904 10.928 66.6408C4.53239 62.4698 1.40592 52.9841 7.63805 47.2259C9.2007 45.7821 11.3358 44.5757 13.5076 44.3487C13.9762 44.2997 15.1145 43.9581 15.4875 44.3288C15.9198 44.7582 15.5307 45.9182 15.4797 46.4395C15.3332 47.9355 15.4476 49.739 15.8113 51.1981C16.357 53.3868 17.1218 55.4226 18.5144 57.2544C21.5294 61.2201 27.9823 64.0925 32.6325 60.948C33.4277 60.4103 34.0652 59.7653 34.604 58.9848C38.6043 53.1893 33.2293 46.0053 28.2738 42.8202C26.8201 41.8859 25.1358 41.1074 23.4703 40.6141C23.1059 40.5061 21.9444 40.3388 21.947 39.8591C21.9508 39.1515 22.6818 38.2176 23.0185 37.6146C24.3559 35.2196 26.4396 33.0979 28.5406 31.3237C29.1794 30.7844 29.8838 30.2986 30.5866 29.8423C30.7578 29.7311 31.1032 29.4105 31.3282 29.4606C31.7227 29.5483 31.1756 30.8807 31.119 31.1257C30.7958 32.5236 30.2921 33.8865 29.9426 35.2786C29.8479 35.6558 29.3526 36.4336 29.8143 36.7339C30.0486 36.8864 30.4078 36.8328 30.6755 36.8739C31.2676 36.9648 32.7835 37.6138 33.2908 37.1298C33.7271 36.7135 33.816 35.0909 33.8917 34.4999C34.1508 32.4774 34.7143 30.451 35.089 28.4436C35.2781 27.4302 35.5411 26.428 35.7374 25.4154C35.7963 25.1117 35.9522 24.596 35.6922 24.3429C35.3371 23.9973 34.2637 24.2281 33.7889 24.1674C31.67 23.8968 29.4314 24.1673 27.2953 24.1164C25.7848 24.0804 24.2751 24.0311 22.7587 24.0311C22.354 24.0311 21.418 23.8625 21.2112 24.3104C21.0366 24.6888 21.2445 25.2713 21.2465 25.675C21.2489 26.1718 21.0763 27.1894 21.4266 27.6007C21.752 27.9828 23.1922 27.7599 23.6482 27.7016C25.3619 27.4828 27.5503 27.1845 29.2523 27.4919ZM20.5481 44.7614C20.9604 44.5889 21.4872 44.8396 21.8692 44.9763C22.8871 45.3407 23.8546 45.7083 24.8046 46.23C27.9227 47.9424 31.5727 51.3109 31.9275 55.0049C32.1113 56.9181 31.9181 58.773 29.8749 59.6221C28.2143 60.3123 26.0152 59.6562 24.6267 58.6995C21.8941 56.8164 20.2293 53.0994 20.0034 49.9003C19.9112 48.5949 19.7812 47.2127 20.0802 45.9204C20.1566 45.5901 20.1854 44.9131 20.5481 44.7614Z" fill="#F6B951"/>
    <path d="M70.992 39.152C70.992 41.5413 70.416 43.7813 69.264 45.872C68.1547 47.9627 66.384 49.648 63.952 50.928C61.5627 52.208 58.5333 52.848 54.864 52.848H47.376V70H38.416V25.328H54.864C58.32 25.328 61.264 25.9253 63.696 27.12C66.128 28.3147 67.9413 29.9573 69.136 32.048C70.3733 34.1387 70.992 36.5067 70.992 39.152ZM54.48 45.616C56.9547 45.616 58.7893 45.0613 59.984 43.952C61.1787 42.8 61.776 41.2 61.776 39.152C61.776 34.8 59.344 32.624 54.48 32.624H47.376V45.616H54.48Z" fill="#19BECF"/>
</svg>