<svg width="70" height="93" viewBox="0 0 70 93" fill="none" xmlns="http://www.w3.org/2000/svg">
<path d="M56.8794 6.78973V7.1262C54.926 7.7847 53.2314 9.05153 51.5175 10.1423C46.117 13.5793 41.6463 18.1091 37.7955 23.1082C36.7549 24.4591 35.7998 25.9842 34.9999 27.4822C34.511 28.3979 34.2013 29.6261 33.3487 30.2886C32.3878 31.0354 30.5386 30.6658 29.3782 30.6792C27.0784 30.7059 24.4841 31.0704 22.2867 31.725C11.2144 35.0232 2.70994 43.1207 0.509642 54.3992C-2.26163 68.6045 6.59446 81.5415 19.1733 88.0482C22.307 89.6692 25.7248 90.9608 29.2052 91.654C30.1219 91.8367 31.7333 92.5924 32.6251 92.0777C33.4329 91.6115 34.0248 88.6915 33.252 88.0436C32.3971 87.3268 30.4436 87.2696 29.3782 86.8822C26.5313 85.8468 23.7818 84.5647 21.2489 82.9128C8.81298 74.8023 2.73374 56.3579 14.8518 45.1614C17.8902 42.354 22.0419 40.0083 26.2648 39.5669C27.1759 39.4717 29.3892 38.8074 30.1146 39.5282C30.9551 40.3633 30.1986 42.6187 30.0994 43.6324C29.8146 46.5413 30.037 50.0481 30.7443 52.8852C31.8052 57.141 33.2924 61.0995 36.0003 64.6614C41.8626 72.3724 54.41 77.9576 63.452 71.8434C64.9983 70.7978 66.2379 69.5437 67.2855 68.026C75.0639 56.757 64.6125 42.7881 54.9768 36.5949C52.1501 34.7781 48.8752 33.2643 45.6368 32.3051C44.9281 32.0952 42.6697 31.7699 42.6748 30.8371C42.6821 29.4612 44.1034 27.6454 44.7582 26.4728C47.3587 21.816 51.4104 17.6903 55.4957 14.2406C56.7376 13.1919 58.1074 12.2472 59.4739 11.36C59.8068 11.1439 60.4784 10.5205 60.916 10.6178C61.6831 10.7884 60.6192 13.3792 60.5091 13.8555C59.8807 16.5736 58.9014 19.2238 58.2218 21.9306C58.0376 22.664 57.0745 24.1765 57.9722 24.7604C58.4279 25.0568 59.1262 24.9527 59.6468 25.0326C60.7982 25.2093 63.7457 26.4712 64.7321 25.5302C65.5805 24.7207 65.7533 21.5656 65.9005 20.4165C66.4043 16.4839 67.5001 12.5436 68.2286 8.6403C68.5963 6.66988 69.1077 4.7211 69.4894 2.75221C69.6038 2.16162 69.907 1.1588 69.4014 0.666699C68.711 -0.0051962 66.6238 0.443482 65.7006 0.325574C61.5806 -0.20058 57.2278 0.325233 53.0742 0.226273C50.1371 0.156331 47.2016 0.060501 44.2531 0.060501C43.4661 0.060501 41.6461 -0.267423 41.2441 0.603623C40.9046 1.33926 41.3087 2.47189 41.3125 3.2569C41.3174 4.22303 40.9817 6.20169 41.6627 7.00134C42.2955 7.74438 45.096 7.31085 45.9827 7.19762C49.3149 6.77207 53.57 6.19214 56.8794 6.78973ZM39.9546 40.3694C40.7564 40.034 41.7807 40.5214 42.5234 40.7873C44.5026 41.4958 46.384 42.2106 48.2312 43.2251C54.2941 46.5546 61.3913 53.1046 62.0813 60.2873C62.4386 64.0074 62.063 67.6142 58.0902 69.2652C54.8611 70.6072 50.5851 69.3315 47.8853 67.4712C42.5718 63.8097 39.3347 56.5822 38.8954 50.3617C38.7162 47.8235 38.4634 45.1359 39.0448 42.623C39.1934 41.9808 39.2493 40.6644 39.9546 40.3694Z" fill="#F6B951"/>
</svg>
